<?xml version="1.0" encoding="UTF-8"?>
<svg version="1.1" viewBox="0 0 1533 923" width="1533" height="923" xmlns="http://www.w3.org/2000/svg">
<path transform="translate(0)" d="m0 0h1533v923h-1533z" fill="#762072"/>
<path transform="translate(0)" d="m0 0h143l-5 11-1 4v26l-2 13 20 11 16 16 10 14 13 24 11 16 9 12 8 10 12 14 27 27 8 7 2 2h19l16 13 8 7 9 10 6 10 9 8 12 5 27 8 30 13 29 10 29 14 8 5-4 6-8 5-16 6-5 3 1 3 16 11 19 10 21 7 14 3 44 5 25 6 15 4 24 3 17 2 13 4 12 7 8 9 4 8 3 13v26l-3 42v33l3 27 6 28 7 25 9 24 9 20 12 24v3h3l10 12v2h2l5 10 11 17 9 12-5 5-17 10-16 9-21 10-18 7-27 8-26 5-28 3h-57l-39-4-36-6-57-13-52-13-10-9-13-12-14-11-14-10-13-8-12-6-24-8-39-12-27-6-27-4-10-1h-43l-77 7-29 4-8 1z" fill="#9D2F8E"/>
<path transform="translate(646)" d="m0 0h887v569l-16-8-14-10-13-11-11-9-16-13-12-11-10-10-15-20-12-21-14-27-13-28-12-28-12-24-16-27-14-20-11-14-11-12-10-10-16-12-15-9-17-8-18-6-25-6-27-4-13-1h-40l-29 3-28 6-24 7-19 6h-2v2l-21 9-32 16-19 12-5 3h-3l-7-24-8-22-14-27-12-18-11-14-9-10-13-13-4-5-11-9-30-23-18-13-20-14-32-21-25-16-24-15-17-11-24-15-14-9-9-4z" fill="#D72880"/>
<path transform="translate(1150,237)" d="m0 0 22 1 21 3 25 6 20 7 25 12 15 10 11 9 8 7 7 8 10 12 10 15 12 21 8 16 9 19 8 20 14 49 4 12v4l3 1 7 8 11 13 11 14 13 16 4 15 4 16 7 12 10 10 16 12v2l-7 5-7 2-13 1-11 4-5 2-2 4-7 10-25 2-6 3-10 14-8 14-15 24-12 19-9 19-7 26-3 13 1 9 5 17v6l-6 18-2 9-1 9v19l6 58 3 12 6 10 6 7h-61l1-20v-15l-2-13-3-5-2-2h-8l-12 4h-9l-13-2-9-24-6-15-8-11-3-2-5 3h-7l-8-5-11-12-9-11-11-12-27-27-7-8-9-10-7-8-38-38-9-11-11-12-12-16-13-18-13-19-17-26-11-18-12-22-13-27-7-19-6-22-4-20-2-2-2 14-1 33-1 2-4-2-4-11-2-12v-19l3-17 6-16 12-23 12-22 14-26 15-22 13-17 9-10 7-8 17-17 11-9 17-13 12-7 20-8 21-6 16-3z" fill="#AB2465"/>
<path transform="translate(114,663)" d="m0 0h43l31 4 29 6 33 10 29 9 14 6 16 10 14 10 11 9 14 12 9 9 7 3 52 13 58 13 31 5 39 4h57l28-3 26-5 30-9 24-10 20-10 28-17 17-12 4-1 23 12 21 7 15 3 10 1h26l11-1h11l8 11 11 17 14 27 9 25 5 17 9 46 2 16 1 16 2 7h-956v-247l14-3 32-4z" fill="#762173"/>
<path transform="translate(1130,219)" d="m0 0h40l29 3 29 6 20 6 18 8 16 9 14 10 13 12 11 11 11 14 13 18 13 21 12 22 12 25 11 26 19 39 10 18 9 14 10 13 9 10 10 10 11 9 16 13 13 11 15 11 18 10 1 1v354h-197l-8-8-6-11-3-19-5-49v-19l2-14 6-20 1-2-1-10-5-16 1-10 8-32 7-16 9-16 11-17 16-26 9-14 4-5 6-3 25-1 2-4 7-10 12-6 4-1 13-1 9-3 3-3h2l-5-5-13-10-10-10-7-14-6-26-11-14-13-16-9-11-9-10-3-3-10-33-10-35-11-26-10-21-13-23-10-15-7-9-9-10-4-5-8-7-13-10-15-9-21-10-24-8-21-5-21-3-22-1-27 2-24 5-24 8-16 8-13 9-10 8-14 12-18 18-18 22-12 17-10 16-13 24-17 32-8 15-5 17-2 12v19l3 16 4 8 2 1 1-35 2-14h3l3 12 6 26 7 20 9 20 11 22 14 24 15 23 15 22 12 17 12 16 8 10 9 10 9 11 43 43 7 8 9 10 7 8 29 29 9 11 13 15 8 5h7l4-2 2-2 10 13 6 14 8 22 1 5 22 1 12-4h8l5 5 2 7 1 9v15l-2 20h-291l-4-69-4-33-7-30-9-27-11-26-13-28-10-19-15-28-12-22-14-26-11-22-8-19-7-21-4-19-2-26 1-23 3-21 3-12h2l2-4 10-9 8-8 9-11 5-2 2-6 14-25 16-26 13-19 14-19 13-16 12-14 27-27 8-7 13-12 3-4-3-1 30-10 32-8 27-4z" fill="#9D2E8D"/>
<path transform="translate(143)" d="m0 0h467l48 32 14 10 21 16 14 11 10 8 11 9 13 11 11 9 12 11 8 7 13 13 8 13 4 11 3 17v21l-3 14-4 10-8 11-10 10-14 9-19 9-15 5-14 3-8 1h-52l-25-1-10-2-4-5-9-3-11-2-15-1-16 2-16 7-7 2 1 5 1 1v5l-5 4-18 7 1 6 3 6-10 4-16 3-14 1h-11l-23-12-16-7-31-11-25-11-30-9-12-6-8-8-6-10-9-10-9-8-13-10h-19l-8-8-8-7-25-25-9-11-10-12-12-17-8-13-13-23-10-13-14-14-19-10-1-4 2-10v-26l4-10z" fill="#7D1F6B"/>
<path transform="translate(0)" d="m0 0h143l-5 11-1 4v26l-2 13 20 11 16 16 10 14 13 24 11 16 9 12 8 10 12 14 27 27 8 7 2 2h19l16 13 8 7 9 10 6 10 9 8 12 5 27 8 30 13 29 10 29 14 8 5-4 6-8 5-16 6-9 5-17 5-14 7-12 10-8 5-11-3-16-4h-17l-16 4-23 6-15 2h-10v2l5 2 7 6 3 6v9l-7 8-10 6-19 7-26 9-20 9-22 13-17 12-10 9-15 11-16 9-10 4h-11l-13-8-6-2h-18l-20 6-34 12-16 6h-2z" fill="#9E2A78"/>
<path transform="translate(1152,270)" d="m0 0h16l19 2 21 5 19 7 17 9 13 10 12 11 9 10 9 13 8 13 11 21 10 25 6 19-4 36-3 17-7 21-15 34-9 13-11 12-8 7-12 10-18 13-20 12-17 9-25 1-16 2h-22l-16-4-22-10-13-4-11-8-13-12-9-11-11-15-10-16-12-19-9-15-8-19-5-21-1-17 2-20 5-18 8-18 10-18 12-17 9-11 11-12 8-8 17-13 13-8 19-9 22-6z" fill="#D82880"/>
<path transform="translate(1465,586)" d="m0 0 19 1 17 1 20 7 12 4v324h-197l-8-8-6-11-3-19-5-49v-19l2-14 6-20 1-2-1-10-5-16 1-10 8-32 7-16 9-16 11-17 16-26 9-14 4-5 6-3 25-1 2-4 7-10 12-6 4-1 13-1 9-3z" fill="#801F5F"/>
<path transform="translate(575,444)" d="m0 0h20l23 3 13 3 8 5 5 6 4 10 1 7 1 50 4 31 6 28 7 26 12 36 7 16 7 13 7 8 4 2h7l7-10 3-2 11 13v2h2l5 10 11 17 9 12-5 5-17 10-16 9-21 10-18 7-27 8-26 5-28 3h-57l-39-4-36-6-57-13-52-13-10-9-13-12-14-11-14-10-13-8-12-6-24-8-39-12-27-6-27-4-10-1h-43l-77 7-29 4-8 1v-63l4-1 55-1 23-2 33-7 21-4 11-1h54l27 1 48 3 27 1 16 3 19 7 15 8 27 18 17 11 11 8 10 9 13 13 13 9 19 9 43 16 25 12 13 4 23 4 28 2 23-1 23-3 17-4 12-5 8-6 4-8 1-3v-17l-6-23-11-31-11-34-14-55-11-43-7-14-8-6-13-4-6-1h-24l-18 2h-6l3-5 6-5 1-2h2l2-4 3-4v-6l-2-2v-3l8-3z" fill="#8A2B8E"/>
<path transform="translate(1150,237)" d="m0 0 22 1 21 3 25 6 20 7 25 12 15 10 11 9 8 7 7 8 10 12 10 15 12 21 8 16 9 19 8 20 14 49 4 12v15h-2l-10-15-9-10-12-12-12-6-4-5-8-13-7-22-8-20-11-23-12-19-9-12-12-13-12-10-11-7-15-8-24-8-21-4-12-1h-16l-21 3-22 6-23 11-17 12-13 11-11 11-9 11-11 15-12 20-8 17-5 15-3 15-1 16 2 20 5 18 7 16 12 20 14 22 10 15 10 13 11 12 11 9 8 5 16 5 20 9 13 3h22l16-2 16-1 9 1-1 28-15 4-9 6-5 8-6 14-6 4h-29l5 10 8 12 9 12 9 10 7 8 11 10 11 9 7 7 9 13 6 12-1 3-7 6-4 8-1 10 5 22-1 4-4 2h-7l-8-5-11-12-9-11-11-12-27-27-7-8-9-10-7-8-38-38-9-11-11-12-12-16-13-18-13-19-17-26-11-18-12-22-13-27-7-19-6-22-4-20-2-2-2 14-1 33-1 2-4-2-4-11-2-12v-19l3-17 6-16 12-23 12-22 14-26 15-22 13-17 9-10 7-8 17-17 11-9 17-13 12-7 20-8 21-6 16-3z" fill="#BB2987"/>
<path transform="translate(775,719)" d="m0 0 5 1 21 11 21 7 15 3 10 1h26l11-1h11l8 11 11 17 14 27 9 25 5 17 9 46 2 16 1 16 2 7h-212l3-3-2-5-15-10-21-13-22-13-26-15-28-17-24-13-19-10-21-10-15-10-8-8-5-8v-1l60-1 28-3 26-5 30-9 24-10 20-10 28-17 17-12z" fill="#8E206E"/>
<path transform="translate(212,714)" d="m0 0 15 1 29 6 17 3 11 4 13 5 41 11 14 4 7 1 9 3 48 12 58 13 31 5 39 4-2 2 6 9 7 7 18 11 35 17 23 13 27 16 24 14 29 17 22 14 13 9 2 5-4 3h-255l-9-10-14-11-15-10-33-17-24-13-24-14-21-13-21-12-41-21-23-13-20-12-18-11-18-10-14-9-6-7-1-2v-9l4-7 6-7z" fill="#7D1F6B"/>
<path transform="translate(102,291)" d="m0 0h10l4 12 6 9 9 7 8 7 6 9 5 5 15 8 26 10 11 3 7 1h20l14-2 12-4 7 1 15 7v2l5 2 7 6 3 6v9l-7 8-10 6-19 7-26 9-20 9-22 13-17 12-10 9-15 11-16 9-10 4h-11l-13-8-6-2h-18l-20 6-34 12-16 6h-2v-166h24l12-4 11-7 8-8 22-18 9-4z" fill="#BB2987"/>
<path transform="translate(316)" d="m0 0h241l7 8 14 12 18 13 14 11 10 10 8 13 4 14 1 8v11l-3 10-6 5-10 3-50 3-25 3-17 5-6 1h-38l1 6 5 8v1h-21l-26-3-6-2-17-9-17-12-13-11-8-7-9-11-4-4v-2h-2l-7-9-2-5h-2l-11-18-8-16-13-29-2-4z" fill="#6D1D5A"/>
<path transform="translate(143)" d="m0 0h62v18l2 11 8 6v2l4 2 18 11 11 8v2l4 2 12 11 7 8 4 5 3 3 12 18 14 22 10 19 4 10 8 10 14 11 24 13 22 10 9 10 10 9 14 8 54 18 19 8 23 7 22 5 5 7v5l-5 4-18 7 1 6 3 6-10 4-16 3-14 1h-11l-23-12-16-7-31-11-25-11-30-9-12-6-8-8-6-10-9-10-9-8-13-10h-19l-8-8-8-7-25-25-9-11-10-12-12-17-8-13-13-23-10-13-14-14-19-10-1-4 2-10v-26l4-10z" fill="#912161"/>
<path transform="translate(0,71)" d="m0 0 7 1 31 9 24 9 18 7 13 23 11 18 16 24 12 17 10 15 15 28 5 14 8 20 1 8-3 6-6 4-11 3-27 4-10 6-3 4-25 3-9 4-11 9-14 12-9 8-12 6-7 2h-19l-5-1z" fill="#BC256A"/>
<path transform="translate(1465,586)" d="m0 0 19 1 17 1 20 7 12 4v51l-6-2-9-4-4-1h-15l-16 5-11 5-5 14-7 12-12 13-17 16-11 11-10 14-13 21-12 22-6 14-7 24-2 8 1 9 9 44 4 28 1 10v10h-49l-8-8-6-11-3-19-5-49v-19l2-14 6-20 1-2-1-10-5-16 1-10 8-32 7-16 9-16 11-17 16-26 9-14 4-5 6-3 25-1 2-4 7-10 12-6 4-1 13-1 9-3z" fill="#912161"/>
<path transform="translate(0)" d="m0 0h143l-5 11-1 4v26l-2 13 20 11 16 16 10 14 13 24 11 16 9 12 8 10 12 14 27 27 8 7 2 4-8 8-10 6-4 5-3 10-9 11-6 10-9-3-11-7-13-10-15-7-17-5-9-3-13-25-10-16-13-18-14-21-14-22-13-24-31-12-24-8-25-7z" fill="#AB2465"/>
<path transform="translate(205)" d="m0 0h111l14 31 8 18 10 16 2 5h2l4 6 5 6v2h2l9 11 5 6 8 7 13 11 18 12 19 10h3v7l6 9 7 6 33 18 5 5-1 7-6 4-4 1-14-1-16-3-9 1-7 5-5 1-33-1-10 2-24-11-12-7-11-6-14-12-7-10-7-16-9-16-11-17-10-15-2-5-3-1-14-16-8-7-4-3v-2l-4-2-23-15-6-4v-2l-4-2-5-4-2-11v-11z" fill="#7F1F5F"/>
<path transform="translate(892,419)" d="m0 0h3l-3 10-4 13-1 5v8l7 1 3 35 4 24 6 21 9 24 4 9-1 9v9l3 12 11 25 12 27 11 29 13 34 8 18 14 28 13 35 9 31 5 21 4 22 3 36v18h-41l-4-69-4-33-7-30-9-27-11-26-13-28-10-19-15-28-12-22-14-26-11-22-8-19-7-21-4-19-2-26 1-23 3-21 3-12h2l2-4 10-9 8-8 9-11z" fill="#8A2B8E"/>
<path transform="translate(1168,311)" d="m0 0h11l15 3 14 7 7 6 7 11 7 15 11 30 3 11 1 13-3 12-6 11-14 15-11 9-13 9-15 8-10 3h-15l-10-4-10-8-14-12-14-11-10-9-6-8-5-10-3-11v-17l3-11 5-10 10-13 17-17 13-10 16-8 11-3z" fill="#E7297B"/>
<path transform="translate(557)" d="m0 0h35l12 12 11 7 18 13 14 10 14 12 11 9 1 3h2v2l4 2 16 16 7 8 11 14 9 16 3 10v13l-4 11-5 6-8 6-12 5-15 3-11 1h-41l-40-2-25-3-25-6-30-10-16-8-5-3-6-1 1-2-6-10 1-5h38l12-3 11-3 25-3 50-3 10-3 5-4 3-10v-11l-3-16-4-9-7-11-10-10-32-24-13-11-6-6z" fill="#762173"/>
<path transform="translate(1321,418)" d="m0 0 3 1 9 15 1 12 13 91 4 18v6l-12 24-11 18-26 38-8 11-12 14-9 9-11 16-4 4-7-7-10-15-14-26-8-11-10-6-12-4v-22l2-7 20-10 22-14 18-14 12-11 8-7 10-13 8-16 13-31 4-13 3-17 3-29z" fill="#BC256A"/>
<path transform="translate(1288,743)" d="m0 0h8l9 3 9 6 3 1 6 18 1 10-6 18-2 9-1 9v19l6 58 3 12 6 10 6 7h-61l1-20v-15l-2-13-3-5-2-2h-8l-12 4h-9l-13-2-9-24-6-15-8-11-4-5-5-22 1-10 4-8 10-9 7-4 8-1 6 3 10 10 6 3h10l10-4 4-2 2-4 4-9 2-11 5-3z" fill="#9E2A78"/>
<path transform="translate(1514,739)" d="m0 0 13 1 6 1v182h-86l-6-12-2-10v-13l4-23 8-31 8-23 12-25 10-18 10-16 4-5 10-6z" fill="#6D1D5A"/>
<path transform="translate(340,180)" d="m0 0 5 2 42 21 7 8 7 7 14 9 15 6 29 9 21 8 15 6 20 6 22 5 5 7v5l-5 4-18 7 1 6 3 6-10 4-16 3-14 1h-11l-23-12-16-7-31-11-25-11-30-9-12-6-8-8-6-10-9-10-9-8-13-10-4-2-1-7-1-5v-10l3-3 10 1 19 8 10 1 8-3 4-5z" fill="#8F216E"/>
<path transform="translate(800,427)" d="m0 0h6l2 3v11l-5 30-1 11v36l3 24 5 23 8 24 8 18 11 22 13 23 12 21 15 23 12 21 9 19 2 8-5-5-10-13-8-11-14-18-13-16-7-10-7-3-17-3-12-6-10-9-8-9-9-13-8-13-11-21-6-17-3-11-2-13-1-15v-11l2-18 3-14 5-15 9-19 7-11 11-13 11-9z" fill="#571A56"/>
<path transform="translate(1197,626)" d="m0 0 12 3 10 6 7 9 12 22 9 15 8 10 4 4 7 19 14 29 1 3-2 7-3 10-5 8-10 6-4 1h-10l-8-5-9-9-5-2-8 1-8 4-10-18-9-11-12-11-11-9-9-9-9-11-8-10-10-15-4-7v-3l29-1 5-3 8-18 5-6 8-5z" fill="#B22976"/>
<path transform="translate(158,225)" d="m0 0 12 2 18 6 13 7 14 11 16 8 5 15 7 29 3 12 2 19 5 13 5 9-15 5-14 2h-20l-14-3-18-6-20-9-11-7-7-11-9-8-8-6-6-8-4-11-1-4 4-5 9-5 32-5 10-4 3-4 1-6-4-13-8-19z" fill="#B22976"/>
<path transform="translate(1381,384)" d="m0 0 7 6 17 13 14 9 10 6 21 9 29 11 11 7 7 9 7 14 5 4h9l8-5 4-6 2-5h1v113l-16-8-14-10-13-11-11-9-16-13-12-11-10-10-15-20-12-21-14-27-13-28-6-14z" fill="#BB2987"/>
<path transform="translate(1333,435)" d="m0 0 14 7 19 19 11 16v2h2v-11l3 1 7 8 11 13 11 14 13 16 4 15 4 16 7 12 10 10 16 12v2l-7 5-7 2-13 1-11 4-4 2-21-12-14-11-11-12-5 2-5 3-6-2-8-9-2-1-4-16-10-68-5-38z" fill="#B22976"/>
<path transform="translate(0)" d="m0 0h143l-5 11-1 4v26l-3 13-9-2-14-3-16-1h-17l2 25v24l-6-1-30-12-26-8-18-5z" fill="#9F2A78"/>
<path transform="translate(1346,760)" d="m0 0 5 2 3 5 3 18 3 19 5 13 4 6 10 46 4 26 2 18v10h-49l-8-8-6-11-3-19-5-49v-19l2-14 6-20 2-6 6-4 7-8 5-4z" fill="#8F216E"/>
<path transform="translate(651,2)" d="m0 0 14 8 15 10 21 13 17 11 21 13 20 13 42 28 17 12 12 9 17 13 13 10 14 12 7 8 14 14 13 17 10 15 13 24 8 19 7 23 3 11-14 10-13 10h-4l-6-9-8-16-6-23-6-25-6-16-11-23-11-18-11-14-9-10-14-14-14-11-15-12-18-13-19-14-36-26-20-14-39-26-13-10-7-7z" fill="#8B2C8E"/>
<path transform="translate(1465,586)" d="m0 0 19 1 17 1 20 7 12 4v51l-6-2-9-4-4-1h-15l-16 5-11 5-14-8-16-8-16-5-6-4-7-11 1-5 8-11 12-6 4-1 13-1 9-3z" fill="#8F216E"/>
<path transform="translate(873,153)" d="m0 0 20 10 20 12 13 10 18 13 17 11 17 10 21 9 31 10 7 1-4 2-5 1v2l-21 9-32 16-19 12-5 3h-3l-7-24-8-22-14-27-12-18-11-14-9-10-13-13z" fill="#BA2986"/>
<path transform="translate(827,667)" d="m0 0h9l7 3 10 13 13 16 24 32 8 11-1 3-2-3h-11l-11 1h-26l-21-3-20-6-23-11-6-4 4-5 14-11 26-26z" fill="#7F1E5F"/>
<path transform="translate(1379,468)" d="m0 0 3 1 7 8 11 13 11 14 13 16 4 15 4 16 7 12 10 10 16 12v2l-7 5-7 2-13 1-11 4-4 2-21-12-14-11-11-12 1-4 12-13 3-6 1-11-3-16-8-22-4-13z" fill="#9F2A78"/>
<path transform="translate(1499,642)" d="m0 0h15l12 4 7 4v60h-23l-14-4-12-7-13-10-11-10 2-5 7-14 3-8 19-8z" fill="#7E1F6B"/>
<path transform="translate(143)" d="m0 0h62v18l2 12-8 11-10 9-11 5-22 8h-6l-15-8-1-4 2-10v-26l4-10z" fill="#8F216E"/>
<path transform="translate(55,47)" d="m0 0h19l4 1 2 25v24l-6-1-30-12-26-8-18-5v-15l25-3 22-5z" fill="#B22976"/>
<path transform="translate(827,667)" d="m0 0h9l7 3 10 13 13 16 12 16 2 4-3-2-21-1-26-4-23-6-10-4 6-7 18-18z" fill="#6D1D5A"/>
</svg>
