<svg xmlns="http://www.w3.org/2000/svg" viewBox="0 0 2000 2000"><circle cx="1056.175" cy="990.361" r="800" fill="#ff385c" class="color6556ff svgShape" opacity=".2" transform="rotate(-45 1056.174 990.361)"/><path fill="#ff385c" d="M832.321,773.636c-.8-3.7-137.3-45.58-145.582-48.118-1.183-.016-2.753-.006-4.653.088-15.454.764-51.146,6.967-50.208,48.03C633.073,826,607.761,826,660.46,873.817s122.028,53.678,156.692,11.9S833.145,777.447,832.321,773.636Z" class="color6556ff svgShape"/><path fill="#ff385c" d="M686.34,725.4c.817.247.335.035,2.721.2Z" class="color6556ff svgShape"/><path fill="#fff" d="M670.2,836.531c-22.094-27.527-12.741-68.3-12.333-70.023a4,4,0,0,1,7.786,1.847c-.09.383-8.842,38.758,10.81,63.2,11.363,14.133,30.129,21.16,55.932,20.715a4.086,4.086,0,0,1,4.06,3.941,4,4,0,0,1-3.939,4.059C708.662,860.657,685.072,855.061,670.2,836.531Z" class="colorffffff svgShape"/><path fill="#fff" d="M1680.083,414.815H1273.076a83.289,83.289,0,0,0-83.289,83.289V553.42a83.263,83.263,0,0,0,44.888,73.9c-14.23,38.228-36.771,99.582-34.3,98.073,2.641-1.612,77.165-58.681,116.311-88.686h363.4a83.29,83.29,0,0,0,83.29-83.29V498.1A83.29,83.29,0,0,0,1680.083,414.815Z" class="colorffffff svgShape"/><path fill="#17080b" d="M1200.312,729.4a4.105,4.105,0,0,1-2.606-.906c-2.959-2.437-3.779-3.109,32.012-99.32a87.038,87.038,0,0,1-43.932-75.75V498.105a87.388,87.388,0,0,1,87.29-87.289h407.007a87.388,87.388,0,0,1,87.289,87.289v55.317a87.387,87.387,0,0,1-87.289,87.289H1318.044C1195.7,734.484,1202.293,729.4,1200.312,729.4Zm72.764-310.582a79.38,79.38,0,0,0-79.29,79.289v55.317a79.1,79.1,0,0,0,42.737,70.355,4,4,0,0,1,1.9,4.942c-19.027,51.113-27.525,75.269-31.3,86.672,16.106-12.18,53.371-40.653,107.125-81.856,1.675-1.282-23.923-.824,365.83-.824a79.379,79.379,0,0,0,79.289-79.289V498.105a79.38,79.38,0,0,0-79.289-79.289Z" class="color090817 svgShape"/><path fill="#17070a" d="M898.273,909.776c70.473-2.178,188.23,5.6,258.238,85.977,60.763,69.761,38.335,134.492,160.285,491.263,39.158,39.61,52.028,84.8,35.859,109.97-15.676,24.4-54.815,24-64.547,23.906-83.739-.848-147.647-84.264-179.3-126.7C974.179,1313.667,916.52,1016.477,898.273,909.776Z" class="color080717 svgShape"/><path fill="#17070a" d="M1276.155,984.982c-20.867,123.363-33.1,228.447-40.641,308.393-22.549,239.022-7.373,297.793,29.285,319.15,35.329,20.582,81.139.9,84.21-.472,153.037-68.238,79.811-547.069,65.8-634.243Z" class="color080717 svgShape"/><path fill="#fff" d="M1275.557,995.142s-14.344-37.055-4.781-59.168,20.32-34.067,25.7-65.743,8.965-45.422,22.114-42.433,5.379,54.984,5.379,54.984,24.5-40.445,35.859-70.127,12.551-55.355,28.09-57.161,14.344,21.5,14.344,21.5,8.367-34.665,25.7-34.067,11.244,26.9,11.244,26.9,6.089-18.5,20.432-14.331,5.379,57.161,5.379,57.161,14.344-25.5,25.7-16.533-4.184,62.156-28.09,100.407-54.726,62.9-50.672,90.09S1288.108,1060.885,1275.557,995.142Z" class="colorffffff svgShape"/><path fill="#17080b" d="M1271.7,996.242c-1.545-4.105-14.3-39.414-4.592-61.855,9.648-22.319,20.171-33.873,25.428-64.824,4.023-23.7,7.054-38.481,15.2-43.93,3.267-2.18,7.219-2.762,11.744-1.738,10.7,2.433,11.742,22.793,10.551,40.429,8.086-14.414,19.424-35.742,26.064-53.1,11.74-30.687,12.585-57.523,31.363-59.707,6.891-.789,12.769,2.209,16.059,9.515,4.656-10.527,12.494-22.566,24.586-22.1,9.51.324,14.7,6.879,15.889,16.468a17.178,17.178,0,0,1,16.763-3.75c12.176,3.539,12.067,28.258,10.274,46.282,6.59-6.733,14.809-10.77,22.168-4.954,15.644,12.352-6,71.782-27.176,105.668-23.719,37.951-53.841,62.33-50.107,87.379C1420.8,1018.887,1285.567,1066.271,1271.7,996.242Zm40.482-163.961c-5.436,3.637-8.422,18.965-11.76,38.617-5.516,32.483-16.471,44.687-25.97,66.661-8.8,20.336,4.7,55.785,4.839,56.14a4.057,4.057,0,0,1,.2.692c6.57,34.418,47.232,31.343,64.414,28.425,34.863-5.921,65.664-25.082,64.093-35.609-4.363-29.294,27.235-54.39,51.237-92.8,25.964-41.54,40.337-99.132,25.291-96.1-5.588,1.1-12.793,10.589-16.024,16.312a4,4,0,0,1-7.427-2.633c5-29.6,2.716-51.121-2.553-52.656-10.449-3.027-15.317,11.148-15.518,11.754a4,4,0,0,1-7.695-2.16c.846-3.692,2.2-14.363-1.611-19.324a7.307,7.307,0,0,0-6.16-2.68c-11.309,0-19.42,22.914-21.385,31.016-1.148,4.719-8.115,3.654-7.883-1.141.15-3.137-.324-12.082-4.272-15.774a6.546,6.546,0,0,0-5.617-1.558c-12.122,1.412-14.027,26.409-24.814,54.621-11.354,29.676-35.166,69.105-36.174,70.769a4.005,4.005,0,0,1-7.379-2.664c3.775-25.293,2.674-49.363-2.309-50.492A6.932,6.932,0,0,0,1312.179,832.281Z" class="color090817 svgShape"/><path fill="#fff" d="M550.484,1702.174h606.027c-58.415-536.328,2.051-647.371-78.891-729.737-29.047-29.557-70.31-50.077-116.776-61.922-23.456-5.98-39.653-25.966-39.653-48.663V762.666H785.8v98.573c0,24.325-17.324,45.463-42.285,52.446-52.882,14.8-99.135,40.122-128.488,75.49-59.94,72.222-17.151,147.39-21.515,368.215A1672.981,1672.981,0,0,1,550.484,1702.174Z" class="colorffffff svgShape"/><path fill="#17080b" d="M1156.511,1706.176H550.484a4,4,0,0,1-3.9-4.9,1672.17,1672.17,0,0,0,42.928-343.96C593.9,1135.6,550.6,1060.54,611.952,986.621c28.485-34.32,73.608-60.875,130.489-76.789,23.545-6.586,39.363-26.113,39.363-48.594V762.664a4,4,0,0,1,4-4H921.191a4,4,0,0,1,4,4v99.188c0,20.871,15.066,39.289,36.64,44.789,49.524,12.621,90.549,34.406,118.643,62.992,82.44,83.888,21.2,192.149,80.014,732.109A4,4,0,0,1,1156.511,1706.176Zm-601-8h596.545c-57.23-529.8,1.59-642.678-77.287-722.934-27.068-27.547-66.805-48.59-114.912-60.851-25.119-6.4-42.664-28.008-42.664-52.539V766.664H789.8v94.574c0,26.114-18.168,48.735-45.207,56.3-55.309,15.477-99.047,41.133-126.488,74.2-58.559,70.556-16.243,145.619-20.594,365.739A1680.292,1680.292,0,0,1,555.509,1698.176Z" class="color090817 svgShape"/><path fill="#17070a" d="M770.689,917.419c-48.593,5.209-122.262,20.539-189.168,71.76-90.215,69.066-89.036,135.311-295.841,460.8l170.333,86.063S765.02,1276.572,770.689,917.419Z" class="color080717 svgShape"/><path fill="#17070a" d="M758.723,917.419s24.96,60.391,105.644,72.942c0,0,35.86-3.4,87.856-80.592,0,0,148.818,33.389,175.712,118.849s90.845,757.228,90.845,757.228a1045.807,1045.807,0,0,1-320.507,19.126q-9.481-45.423-18.964-90.845l-27.235,90.845a1235.412,1235.412,0,0,1-333.752-29.286c35.187-249.323,45.474-431.165,46.618-564.788.587-68.62-.717-185.232,77.717-249.939C680.993,929.332,726.228,920.128,758.723,917.419Z" class="color080717 svgShape"/><path fill="#fff" d="M879.306,1718.125a4,4,0,0,1-4-3.918L860.367,990.441a4,4,0,0,1,3.918-4.082,4.072,4.072,0,0,1,4.082,3.918l14.941,723.766A4.022,4.022,0,0,1,879.306,1718.125Z" class="colorffffff svgShape"/><path fill="#fff" d="M731.687,912.665a208.534,208.534,0,0,0-69.926,28.389C693.626,1034.417,795.749,1083,857.2,996.637a97.2,97.2,0,0,0,39,24.429c6.149,2.013,43.186,16.149,66.788-2.914,46.618-37.652,39.512-101.666,39.512-101.666L956.706,904.3c-1.3,3.061-29.846,67.112-97.718,76.2C808.08,987.318,756.874,960.291,731.687,912.665Z" class="colorffffff svgShape"/><path fill="#17080b" d="M657.976,942.348a4,4,0,0,1,1.635-4.664,212.6,212.6,0,0,1,71.263-28.938,4.023,4.023,0,0,1,4.348,2.047c24.293,45.941,73.814,72.367,123.234,65.742,66.229-8.871,93.444-71.156,94.569-73.8a4.031,4.031,0,0,1,4.711-2.3l45.787,12.191a4.006,4.006,0,0,1,2.947,3.426c.3,2.7,6.8,66.633-40.975,105.219-10.98,8.867-31.929,16.765-69.365,4-14.42-4.863-26.647-11.565-38.441-22.563C793.59,1086.541,690.506,1037.654,657.976,942.348Zm8.619.4c32.491,89.952,129.124,133.405,187.34,51.57a4,4,0,0,1,6.117-.48c11.5,11.734,23.928,18.9,38.66,23.859,33.983,11.582,52.34,4.95,61.756-2.656,39.01-31.508,38.875-83.109,38.24-95.418l-39.787-10.594c-6.742,13.786-36.623,67.032-99.4,75.438C807.785,991.387,755.945,964.441,729.6,917.2A204.6,204.6,0,0,0,666.6,942.746Z" class="color090817 svgShape"/><path fill="#fff" d="M831.913,1009.739C767.65,826.048,566.643,729.236,382.955,793.5s-280.5,265.268-216.241,448.959a350.8,350.8,0,0,0,135.622,175.831l-2.014.747,359.445,260.786,146.456-380.647A351.5,351.5,0,0,0,831.913,1009.739ZM433.646,938.394a141.3,141.3,0,1,1-86.71,180.027A141.294,141.294,0,0,1,433.646,938.394Z" class="colorffffff svgShape"/><path fill="#17080b" d="M659.767,1683.82c-2.023,0,24.16,18.472-361.8-261.547a4,4,0,0,1-1.65-3.246,353.3,353.3,0,0,1-133.383-175.25C97.9,1057.878,195.7,854.77,381.634,789.723c185.916-65.033,389.008,32.76,454.055,218.7a356.582,356.582,0,0,1-25.836,292.461L663.5,1681.258A3.991,3.991,0,0,1,659.767,1683.82ZM306.331,1418.453,657.9,1673.527l144.588-375.793c2.161-5.682,80.8-129.021,25.646-286.675-63.576-181.721-262.1-277.382-443.863-213.782-181.729,63.576-277.374,262.1-213.785,443.86a345.431,345.431,0,0,0,134.08,173.832A4,4,0,0,1,306.331,1418.453Zm174.1-201.383c-60.045,0-116.352-37.523-137.275-97.328C316.7,1044.121,356.7,961.074,432.326,934.617c.818,0,52.624-21.888,111.027,6.242a144.352,144.352,0,0,1,74.1,82.926C650.412,1118,580.2,1217.07,480.435,1217.07Zm-45.469-274.9c-71.457,25-109.254,103.473-84.256,174.93s103.473,109.261,174.934,84.253S634.9,1097.883,609.9,1026.426a136.409,136.409,0,0,0-70.016-78.36C484.294,921.285,434.566,942.172,434.966,942.172Z" class="color090817 svgShape"/><path fill="#17070a" d="M724.515,1261.1c-107.537,41.627-193.611,72.2-249.224,91.442-120.1,41.563-173.2,56.292-193.941,105.786-18.127,43.258-8.325,105.416,24.2,132.68,92.913,77.87,378.238-123.045,467.37-188.263Q748.721,1331.923,724.515,1261.1Z" class="color080717 svgShape"/><path fill="#fff" d="M705.689,1277.238a134.981,134.981,0,0,1,18.228-29.883c17.169-21.284,27.92-21.06,36.458-37.652,11.094-21.562,2.537-40.589,10.757-43.63,6.8-2.516,18.252,8.439,23.907,18.528,9.858,17.589,7.471,42.126,7.471,42.126A101.4,101.4,0,0,0,830.1,1195.42c6.818-12.279,25.962-7.506,25.763,6.538a50.4,50.4,0,0,1-2.367,13.87s24.167,1.345,15.053,33.619c0,0,11.057,1.457,11.953,15.744s-6.724,31.321-6.724,31.321,6.361-2.462,11.308.8c3.888,2.566,4.837,7.143,5.278,9.506,2.943,15.77-11.534,34.592-21.217,46.916-8.541,10.87-13.113,16.687-21.516,22.712-23.746,17.022-39.447,9.693-98.913,36.552C748.72,1413,651,1353.439,705.689,1277.238Z" class="colorffffff svgShape"/><path fill="#17080b" d="M748.72,1417a3.971,3.971,0,0,1-2.082-.586c-2.068-1.258-50.764-31.4-60.068-77.2-4.41-21.7.847-43.223,15.631-63.973a139,139,0,0,1,18.6-30.394c17.188-21.3,28.124-21.633,36.014-36.973,11.19-21.743.747-41.05,12.927-45.547,9.916-3.679,22.811,9.668,28.784,20.321,6.623,11.82,8.072,26.285,8.23,35.449a98.292,98.292,0,0,0,19.846-24.614c8.834-15.9,33.515-9.652,33.26,8.536a50.742,50.742,0,0,1-1.4,10.757c11.521,3.534,19.266,14.378,14.887,34.02,15.447,7.261,12.153,28.737,6.59,44.867,6.912.357,12.546,4.672,14.359,14.426,3.336,17.875-12.525,38.062-22,50.125-8.679,11.047-13.461,17.133-22.33,23.488-13.057,9.36-24.3,11.931-39.006,15.571C771.676,1405.158,752.018,1417,748.72,1417Zm24.654-247.312a2.432,2.432,0,0,0-.853.136c-1.338.5-1.5,5.457-1.645,9.832-.271,8.285-.644,19.633-6.945,31.879-9.033,17.55-20.124,17.53-36.9,38.332a130.962,130.962,0,0,0-17.688,29c-1.232,2.817-21.563,26.04-14.941,58.723,7.644,37.711,46,65.109,54.664,70.875,57.576-25.635,73.818-19.194,96.236-35.262,7.943-5.7,12.2-11.121,20.7-21.933,8.639-11,23.1-29.4,20.43-43.711-.315-1.688-.969-5.2-3.549-6.9-3.127-2.062-7.639-.422-7.685-.406a4.011,4.011,0,0,1-5.071-5.371c.073-.16,7.2-16.328,6.383-29.438-.658-10.48-7.73-11.91-8.535-12.039a4.045,4.045,0,0,1-3.275-5.043c2.845-10.074,2.527-17.687-.948-22.629-3.789-5.382-10.437-5.906-10.5-5.91a4.021,4.021,0,0,1-3.58-5.152,46.833,46.833,0,0,0,2.2-12.77c.141-9.928-13.481-13.145-18.268-4.535a104.615,104.615,0,0,1-28.818,32.657,4,4,0,0,1-6.252-3.676c.023-.235,2.133-23.531-6.977-39.785C786.277,1177.148,777.415,1169.688,773.374,1169.688Zm-67.685,107.55h0Z" class="color090817 svgShape"/><path fill="#fff" d="M1088.338,585.424c.036-24.781-3.081-36.028-3.217-39.365l-.045-.026C1066.515,434.871,969.929,350.124,853.5,350.124c-130.669,0-234.932,106.331-234.932,234.856a46.653,46.653,0,1,0,14.384,91.058c32.1,106.88,110.289,182.893,221.1,180.168,0,0,59.912-1.472,116.544-37.652,45.926-29.341,79.8-79.351,98.45-140.294.245-.566.521-1.117.762-1.686a46.62,46.62,0,1,0,18.528-91.15Z" class="colorffffff svgShape"/><path fill="#17080b" d="M848.868,860.27c-108.588,0-185.622-74.054-218.6-179.332a50.655,50.655,0,1,1-15.717-99.793c.018-6.056-.025-6.982.416-8.012a238.836,238.836,0,0,1,477.361,8.9,50.771,50.771,0,0,1,40.541,49.6c0,31.908-29.327,55.981-60.568,49.648-19.639,62.961-54.033,111.567-99.551,140.645C933.962,846.707,884.33,860.27,848.868,860.27ZM636.781,674.887C668.3,779.851,745.262,855.076,853.956,852.207c.586-.016,59.524-1.906,114.487-37.023,43.705-27.918,78.076-76.961,96.781-138.094a20.953,20.953,0,0,1,.9-2.07,4,4,0,0,1,4.748-2.3,42.622,42.622,0,1,0,16.944-83.332,4.017,4.017,0,0,1-3.469-4.344,230.836,230.836,0,0,0-461.436-10.5,4.007,4.007,0,0,1-.293,1.332c-.213,9.36.467,10.215-1.207,11.914a4.01,4.01,0,0,1-2.837,1.188,42.656,42.656,0,1,0,13.15,83.257A4,4,0,0,1,636.781,674.887Z" class="color090817 svgShape"/><path fill="#17070a" d="M694.738,585.75a4.006,4.006,0,0,1-2.719-6.934c44.242-40.984,94.693-21.839,95.2-21.64a4,4,0,0,1-2.92,7.449c-1.877-.734-46.375-17.434-86.838,20.059A3.983,3.983,0,0,1,694.738,585.75Z" class="color080717 svgShape"/><path fill="#17070a" d="M722.9,617.766a4,4,0,0,1,5.605-5.711c4.408,4.336,7.348,3,14.637-1.875a57.67,57.67,0,0,1,6.393-3.891c10.216-5.051,20.812.52,21.255.758a4,4,0,0,1-3.771,7.055c-.133-.067-7.5-3.832-13.936-.641C745.271,617.327,734.7,629.346,722.9,617.766Z" class="color080717 svgShape"/><circle cx="760.608" cy="627.721" r="23.496" fill="#17070a" class="color080717 svgShape"/><path fill="#17070a" d="M989.423,577.863a3.982,3.982,0,0,1-2.808-1.152A70.076,70.076,0,0,0,910.2,561.984a4,4,0,1,1-3.1-7.375,78.076,78.076,0,0,1,85.133,16.407A4.006,4.006,0,0,1,989.423,577.863Z" class="color080717 svgShape"/><path fill="#17070a" d="M950.954,606.4c-6.656-2.793-13.8,1.472-13.871,1.515a4,4,0,0,1-4.207-6.8c.43-.261,10.651-6.488,21.168-2.093a57.811,57.811,0,0,1,6.621,3.48c7.58,4.41,10.6,5.543,14.729.949a4,4,0,0,1,5.953,5.344C970.256,621.143,958.893,609.706,950.954,606.4Z" class="color080717 svgShape"/><circle cx="944.34" cy="621.1" r="23.496" fill="#17070a" class="color080717 svgShape"/><path fill="#17070a" d="M840.529,683.953a4,4,0,0,1,.6-7.976c12.645.957,27.824-.657,30.285-4.559,2.276-4.734-7.24-34.188-17.568-58.7a4,4,0,1,1,7.371-3.11c7.061,16.758,22.85,56.739,16.965,66.071C872.549,684.63,851.063,684.752,840.529,683.953Z" class="color080717 svgShape"/><ellipse cx="723.346" cy="688.467" fill="#ff385c" class="color6556ff svgShape" rx="21.189" ry="32.46" transform="rotate(-88.167 723.347 688.466)"/><ellipse cx="961.232" cy="690.178" fill="#ff385c" class="color6556ff svgShape" rx="21.189" ry="32.46" transform="rotate(-88.167 961.234 690.177)"/><path fill="#17070a" d="M830.9,1247.172a4,4,0,0,1-2.606-7.035c11.9-10.2,21.686-26.223,21.783-26.383a4,4,0,1,1,6.842,4.148c-.424.7-10.529,17.258-23.418,28.305A3.976,3.976,0,0,1,830.9,1247.172Z" class="color080717 svgShape"/><path fill="#17070a" d="M842.2,1276.457a4,4,0,0,1-2.044-7.441c12.369-7.34,25.246-22.047,25.375-22.2a4,4,0,0,1,6.035,5.25c-.559.641-13.838,15.821-27.328,23.828A3.992,3.992,0,0,1,842.2,1276.457Z" class="color080717 svgShape"/><path fill="#17070a" d="M855.378,1321.281a4,4,0,0,1-2.375-7.222c8.258-6.075,17.36-19.633,17.451-19.766a4,4,0,1,1,6.655,4.437c-.4.606-9.969,14.86-19.364,21.774A4,4,0,0,1,855.378,1321.281Z" class="color080717 svgShape"/><path fill="#17070a" d="M1375.363,855.7a4,4,0,0,1-3.5-5.933c18.6-33.711,28.1-78.938,28.189-79.387A4,4,0,1,1,1407.89,772c-.393,1.9-9.824,46.84-29.022,81.637A4,4,0,0,1,1375.363,855.7Z" class="color080717 svgShape"/><path fill="#17070a" d="M1409.429,855.7a4,4,0,0,1-3.348-6.183c16.151-24.8,30.034-87.094,30.172-87.719a4,4,0,0,1,7.813,1.726c-.578,2.614-14.344,64.348-31.281,90.36A4,4,0,0,1,1409.429,855.7Z" class="color080717 svgShape"/><path fill="#17070a" d="M1431.544,876.023a4,4,0,0,1-3.136-6.48c17.343-21.969,33.523-63.391,33.685-63.8a4,4,0,1,1,7.457,2.891c-.676,1.746-16.769,42.953-34.865,65.875A4,4,0,0,1,1431.544,876.023Z" class="color080717 svgShape"/><path fill="#17070a" d="M1348.466,929.813a4,4,0,0,1-3.969-3.547c-2.2-19.262-23.148-40.446-23.359-40.657a4,4,0,0,1,5.658-5.656c.944.942,23.129,23.356,25.651,45.406A4,4,0,0,1,1348.466,929.813Z" class="color080717 svgShape"/><path fill="#17070a" d="M1416.609,904.113a4,4,0,0,1-3.582-2.211c-10.932-21.863-57.1-31.242-57.561-31.332a4,4,0,0,1,1.551-7.851c2.055.406,50.48,10.234,63.166,35.6A4,4,0,0,1,1416.609,904.113Z" class="color080717 svgShape"/><path fill="#ff385c" d="M807.59,371.783s-27.44,59.766-84.244,81.282-34.093,83.809-58,116.014S620,591.279,607.114,586.42s-27.606,15.313-27.606,15.313-24.878-24.952,0-76.949-9.189-91.442,60.139-141.048,92.152-90.7,153-62.156c0,0,123.716-65.394,206.193-9.389s59.766,93.724,117.141,133.436,6.35,155.814,6.35,155.814-14.089-13.9-25.534-14.088-14.135,21.342-30.72,15.844-20.022-32.393-24.8-98.733S872.735,365.209,807.59,371.783Z" class="color6556ff svgShape"/><path fill="#ff385c" d="M1044.861,519.405c-15.8,78.5,22.147,100.809,10.844,136.98-2.583,8.264-7.535,16.1-15.468,23.824-24.811,24.172-4.192,67.2,27.633,61.824,0,0-38.549-25.1-13-48.41s29.838-38.224,27.792-65.9c-3.02-40.836-1.841-61.773-7.172-80.226C1067.41,519.528,1055.043,491.96,1044.861,519.405Z" class="color6556ff svgShape"/><path fill="#17070a" d="M801.261,726.309a4,4,0,0,1,3.93-4.711l93.082-.2a4,4,0,0,1,3.709,5.5c-.6,1.492-15.086,36.562-46.971,40.629C827.95,770.975,806.019,752.7,801.261,726.309Zm9.027,3.277c11.228,37.273,57.919,43.834,81.622-.176Z" class="color080717 svgShape"/><path fill="#17070a" d="M626.831,664a3.941,3.941,0,0,1-1.935-.5c-19.8-10.976-26.144-27.055-13.879-44.5l-24.424,3.617a4,4,0,1,1-1.172-7.914l35.412-5.246a4,4,0,0,1,3.125,7.047c-.121.1-12.144,10.156-11.109,21.437.625,6.8,5.982,13.047,15.926,18.567A4,4,0,0,1,626.831,664Z" class="color080717 svgShape"/><path fill="#17070a" d="M1086.249,665.348a4.006,4.006,0,0,1-2.8-6.852c14.556-14.312-.264-34.82-.416-35.027a4,4,0,0,1,3.22-6.371h26.895a4,4,0,0,1,0,8H1093.3c5.191,10.523,8.344,26.722-4.248,39.1A3.99,3.99,0,0,1,1086.249,665.348Z" class="color080717 svgShape"/><path fill="#fff" d="M611.169,547.047a4,4,0,0,1,3.526-4.426c52.161-5.883,21.818-83.679,62.65-99.543,35.783-13.9,59.131-57.484,59.363-57.922a4,4,0,0,1,7.077,3.731c-1,1.9-24.94,46.656-63.542,61.652-34.344,13.337-5.759,93.387-64.65,100.035A4,4,0,0,1,611.169,547.047Z" class="colorffffff svgShape"/><path fill="#fff" d="M1037.523,430.281c-38.8-66.39-178.141-76.023-179.543-76.113a4,4,0,1,1,.508-7.984,445.368,445.368,0,0,1,77.025,13.285c54.99,14.738,91.635,37.2,108.916,66.773,40.634,69.534,12.353,123.906,68.621,122.254a4,4,0,0,1,.188,8C1048.684,557.79,1077.3,498.336,1037.523,430.281Z" class="colorffffff svgShape"/><path fill="#fff" d="M1102.529,527.773c-21.469-15.476-23.348-58.964-23.418-60.808a4,4,0,0,1,3.845-4.149,3.92,3.92,0,0,1,4.151,3.844c.015.414,1.8,41.442,20.107,54.629,5.742,4.141,12.461,5,20.535,2.645a4,4,0,0,1,2.243,7.679C1120.239,534.462,1110.8,533.734,1102.529,527.773Z" class="colorffffff svgShape"/><polygon fill="#17070a" points="1290.408 499.902 1319.341 484.691 1313.816 516.908 1337.223 539.725 1304.875 544.425 1290.408 573.738 1275.942 544.425 1243.594 539.725 1267.001 516.908 1261.475 484.691 1290.408 499.902" class="color080717 svgShape"/><polygon fill="#17070a" points="1415.002 499.902 1443.935 484.691 1438.409 516.908 1461.817 539.725 1429.468 544.425 1415.002 573.738 1400.535 544.425 1368.187 539.725 1391.595 516.908 1386.069 484.691 1415.002 499.902" class="color080717 svgShape"/><polygon fill="#17070a" points="1539.596 499.902 1568.529 484.691 1563.003 516.908 1586.41 539.725 1554.062 544.425 1539.596 573.738 1525.129 544.425 1492.781 539.725 1516.188 516.908 1510.663 484.691 1539.596 499.902" class="color080717 svgShape"/><polygon fill="#17070a" points="1664.189 499.902 1693.122 484.691 1687.596 516.908 1711.004 539.725 1678.656 544.425 1664.189 573.738 1649.723 544.425 1617.375 539.725 1640.782 516.908 1635.256 484.691 1664.189 499.902" class="color080717 svgShape"/><path fill="#fff" d="M1192.919,1584.781a4,4,0,0,1-3.965-3.511c-31.35-254.647-29.915-238.657-28.65-240.567,35.21-53.17,31.88-123.134-12.092-172.332-1.175-1.316.25,6.156-14.951-96.019a4,4,0,0,1,7.914-1.18l13.8,92.773c45.679,52.017,48.608,124.471,12.812,179.93l29.108,236.418A4,4,0,0,1,1192.919,1584.781Z" class="colorffffff svgShape"/><path fill="#fff" d="M1240.908,1540.039a4,4,0,0,1-3.489-2.035c-33.584-59.582-1.843-288.887-.476-298.617a4,4,0,1,1,7.922,1.109c-.33,2.359-32.739,236.34-.477,293.578A4,4,0,0,1,1240.908,1540.039Z" class="colorffffff svgShape"/></svg>